<?xml version="1.0" standalone="no"?>
<!DOCTYPE svg PUBLIC "-//W3C//DTD SVG 20010904//EN"
 "http://www.w3.org/TR/2001/REC-SVG-20010904/DTD/svg10.dtd">
<svg version="1.0" xmlns="http://www.w3.org/2000/svg"
 width="70.000000pt" height="78.000000pt" viewBox="0 0 70.000000 78.000000"
 preserveAspectRatio="xMidYMid meet">

<g transform="translate(0.000000,78.000000) scale(0.100000,-0.100000)"
fill="#000000" stroke="none">
<path d="M199 719 c-56 -28 -103 -43 -141 -46 l-58 -6 6 -86 c8 -104 34 -211
71 -294 48 -107 151 -220 245 -268 l36 -19 61 41 c133 89 225 233 261 409 11
52 20 123 20 156 l0 62 -52 4 c-34 3 -86 20 -144 46 -77 36 -101 42 -155 42
-56 0 -77 -6 -150 -41z m286 -58 c44 -22 97 -42 118 -46 l38 -7 -6 -57 c-11
-91 -35 -181 -69 -251 -32 -67 -131 -182 -184 -212 -29 -17 -30 -17 -76 13
-25 17 -65 52 -87 77 -79 89 -148 270 -149 389 0 41 0 41 48 53 26 6 76 27
112 45 93 49 148 48 255 -4z"/>
<path d="M299 594 c-39 -16 -79 -75 -79 -116 0 -13 -7 -34 -16 -47 -11 -15
-13 -25 -6 -30 5 -3 14 -26 19 -51 8 -41 12 -45 37 -45 21 -1 31 -7 37 -23 8
-20 15 -22 87 -22 l79 0 -5 49 c-4 41 0 55 24 91 52 78 31 163 -47 194 -48 20
-83 20 -130 0z m132 -31 c15 -9 33 -29 40 -44 11 -29 4 -89 -11 -89 -5 0 -15
-6 -22 -13 -21 -22 -68 -30 -68 -13 0 9 -10 21 -22 27 -13 7 -27 18 -31 25 -4
8 -16 14 -25 14 -9 0 -23 9 -30 20 -37 59 95 116 169 73z"/>
</g>
</svg>
